 <svg  version="1.0" xmlns="http://www.w3.org/2000/svg"  width="300.000000pt" height="300.000000pt" viewBox="0 0 300.000000 300.000000"  preserveAspectRatio="xMidYMid meet">  <g transform="translate(0.000000,300.000000) scale(0.100000,-0.100000)" fill="#121212" stroke="none"> <path d="M1085 2977 c-66 -37 -85 -87 -85 -227 l0 -117 -52 -24 c-28 -13 -80 -43 -116 -66 l-64 -42 -107 59 c-86 48 -115 60 -151 60 -53 0 -97 -24 -132 -72 -41 -55 -341 -580 -357 -623 -32 -91 12 -159 156 -239 l88 -49 0 -137 0 -137 -88 -49 c-144 -80 -188 -148 -156 -239 16 -43 316 -568 357 -623 35 -48 79 -72 132 -72 36 0 65 12 151 60 l107 59 64 -42 c36 -23 88 -53 116 -66 l52 -24 0 -117 c0 -140 19 -190 85 -227 39 -22 45 -23 415 -23 370 0 376 1 415 23 66 37 85 87 85 227 l0 117 52 24 c28 13 80 43 116 66 l64 42 107 -59 c86 -48 115 -60 151 -60 53 0 97 24 132 72 41 55 341 580 357 623 32 91 -12 159 -156 239 l-88 49 0 137 0 137 88 49 c144 80 188 148 156 239 -16 43 -316 568 -357 623 -35 48 -79 72 -132 72 -36 0 -65 -12 -151 -60 l-107 -59 -64 42 c-36 23 -88 53 -116 66 l-52 24 0 117 c0 140 -19 190 -85 227 -39 22 -45 23 -415 23 -370 0 -376 -1 -415 -23z m583 -932 c241 -76 402 -294 402 -545 0 -316 -254 -570 -570 -570 -316 0 -570 254 -570 570 0 383 374 660 738 545z"/> </g> </svg> 